HIERARCHY
ROOT joint_Root
{
	OFFSET 0.0 0.0 0.0
	CHANNELS 6 Xposition Yposition Zposition Zrotation Xrotation Yrotation 
	JOINT Hips
	{
		OFFSET 4.5925 91.4895 -427.239
		CHANNELS 6 Xposition Yposition Zposition Zrotation Xrotation Yrotation 
		JOINT Spine
		{
			OFFSET 15.7357 0.0 0.0
			CHANNELS 6 Xposition Yposition Zposition Zrotation Xrotation Yrotation 
			JOINT Chest
			{
				OFFSET 8.98455 -0.406207 0.0
				CHANNELS 6 Xposition Yposition Zposition Zrotation Xrotation Yrotation 
				JOINT Neck
				{
					OFFSET 16.3773 0.0 0.0
					CHANNELS 6 Xposition Yposition Zposition Zrotation Xrotation Yrotation 
					JOINT Head
					{
						OFFSET 6.45672 0.0 0.0
						CHANNELS 6 Xposition Yposition Zposition Zrotation Xrotation Yrotation 
						End Site
						{
							OFFSET 0.0 0.0 0.0
						}
					}
				}
				JOINT Shoulder_L
				{
					OFFSET 12.9942 -0.242716 4.98039
					CHANNELS 6 Xposition Yposition Zposition Zrotation Xrotation Yrotation 
					JOINT UpperArm_L
					{
						OFFSET 5.34809 0.0 0.0
						CHANNELS 6 Xposition Yposition Zposition Zrotation Xrotation Yrotation 
						JOINT LowerArm_L
						{
							OFFSET 24.3286 1.87007e-05 0.0
							CHANNELS 6 Xposition Yposition Zposition Zrotation Xrotation Yrotation 
							JOINT Hand_L
							{
								OFFSET 22.2916 0.0 0.0
								CHANNELS 6 Xposition Yposition Zposition Zrotation Xrotation Yrotation 
								End Site
								{
									OFFSET 0.0 0.0 0.0
								}
							}
						}
					}
				}
				JOINT Shoulder_R
				{
					OFFSET 12.9945 -0.242716 -4.98039
					CHANNELS 6 Xposition Yposition Zposition Zrotation Xrotation Yrotation 
					JOINT UpperArm_R
					{
						OFFSET -5.34813 0.0 0.0
						CHANNELS 6 Xposition Yposition Zposition Zrotation Xrotation Yrotation 
						JOINT LowerArm_R
						{
							OFFSET -24.3289 0.000322201 0.0
							CHANNELS 6 Xposition Yposition Zposition Zrotation Xrotation Yrotation 
							JOINT Hand_R
							{
								OFFSET -22.2915 -0.000108084 0.0
								CHANNELS 6 Xposition Yposition Zposition Zrotation Xrotation Yrotation 
								End Site
								{
									OFFSET 0.0 0.0 0.0
								}
							}
						}
					}
				}
			}
		}
		JOINT UpperLeg_L
		{
			OFFSET -2.19248 -6.46944 0.0
			CHANNELS 6 Xposition Yposition Zposition Zrotation Xrotation Yrotation 
			JOINT LowerLeg_L
			{
				OFFSET 39.0811 0.0 -1.23785e-05
				CHANNELS 6 Xposition Yposition Zposition Zrotation Xrotation Yrotation 
				JOINT Foot_L
				{
					OFFSET 40.9854 0.0 -1.26872e-05
					CHANNELS 6 Xposition Yposition Zposition Zrotation Xrotation Yrotation 
					JOINT Toes_L
					{
						OFFSET 11.7543 0.0 0.0
						CHANNELS 6 Xposition Yposition Zposition Zrotation Xrotation Yrotation 
						End Site
						{
							OFFSET 0.0 0.0 0.0
						}
					}
				}
			}
		}
		JOINT UpperLeg_R
		{
			OFFSET -2.19251 6.46944 0.0
			CHANNELS 6 Xposition Yposition Zposition Zrotation Xrotation Yrotation 
			JOINT LowerLeg_R
			{
				OFFSET -39.0811 -0.00228153 -0.0401928
				CHANNELS 6 Xposition Yposition Zposition Zrotation Xrotation Yrotation 
				JOINT Foot_R
				{
					OFFSET -40.9854 0.0 0.0
					CHANNELS 6 Xposition Yposition Zposition Zrotation Xrotation Yrotation 
					JOINT Toes_R
					{
						OFFSET -11.7543 0.0 0.0
						CHANNELS 6 Xposition Yposition Zposition Zrotation Xrotation Yrotation 
						End Site
						{
							OFFSET 0.0 0.0 0.0
						}
					}
				}
			}
		}
	}
}
MOTION
Frames:	5
Frame Time:	0.0333333
0.000000 0.000000 0.000000 0.000000 0.000000 -0.000000 -0.468083 90.653300 -0.879544 91.148500 -5.557560 7.864540 15.735700 0.000005 -0.000001 86.846500 83.513000 -80.856300 8.984550 -0.406207 -0.000000 5.261050 -0.841669 12.005900 16.377300 -0.000001 -0.000001 5.583590 -3.144810 1.877030 6.456720 -0.000001 -0.000000 1.867860 -3.378250 7.304720 12.994200 -0.242716 4.980390 -88.091800 -4.339180 -66.234000 5.348090 -0.000007 -0.000001 -52.278400 -53.383400 -43.024700 24.328600 0.000019 0.000005 -0.445824 -0.950297 -25.136800 22.291600 -0.000001 0.000005 19.056000 4.798890 11.334700 12.994500 -0.242716 -4.980390 87.276900 9.037390 -73.154100 -5.348130 -0.000001 -0.000004 -56.673200 4.428370 0.720454 -24.328900 0.000322 -0.000009 -6.092100 -15.450900 -21.828600 -22.291500 -0.000108 -0.000004 22.940500 5.498450 -6.470790 -2.192480 -6.469440 -0.000000 -174.895000 -18.976300 -1.262940 39.081100 -0.000007 -0.000012 -0.182518 0.312158 30.315000 40.985400 -0.000006 -0.000013 1.009570 9.770320 -70.522400 11.754300 -0.000000 0.000003 -0.000061 -0.000671 -16.603500 -2.192510 6.469440 -0.000001 173.161000 16.423500 177.460000 -39.081100 -0.002282 -0.040193 -0.216048 0.353483 31.821000 -40.985400 0.000008 0.000006 2.902870 13.965700 -71.490600 -11.754300 -0.000006 -0.000006 -0.000005 -0.000069 -16.576600
0.000000 0.000000 0.000000 0.000000 0.000000 -0.000000 -0.723942 90.583100 -0.891720 91.038800 -5.298950 7.827570 15.735700 0.000005 -0.000001 88.366700 83.559800 -82.640500 8.984550 -0.406207 -0.000000 5.159850 -0.495322 11.461800 16.377300 -0.000001 -0.000001 5.224730 -3.713920 1.262900 6.456720 -0.000001 -0.000000 1.856450 -4.293670 6.948280 12.994200 -0.242716 4.980390 -87.842400 -4.911390 -66.247500 5.348090 -0.000007 -0.000001 -51.848900 -54.548200 -47.193200 24.328600 0.000019 0.000005 -1.399890 -2.894840 -25.812100 22.291600 -0.000001 0.000005 20.645800 4.800080 11.315100 12.994500 -0.242716 -4.980390 87.290600 8.946940 -73.075800 -5.348130 -0.000001 -0.000004 -57.400200 6.187310 1.384180 -24.328900 0.000322 -0.000009 -6.372870 -16.353700 -21.633500 -22.291500 -0.000108 -0.000004 22.606300 5.499400 -6.509740 -2.192480 -6.469440 -0.000000 -174.706000 -18.490100 -1.563460 39.081100 -0.000007 -0.000012 -0.188788 0.317509 30.735700 40.985400 -0.000006 -0.000013 0.820085 9.643930 -70.655400 11.754300 -0.000000 0.000003 -0.000063 -0.000694 -16.604400 -2.192510 6.469440 -0.000001 173.437000 16.656400 177.332000 -39.081100 -0.002282 -0.040193 -0.217871 0.352004 32.141900 -40.985400 0.000008 0.000006 3.104070 13.795800 -71.732000 -11.754300 -0.000006 -0.000006 -0.000005 -0.000076 -16.576900
0.000000 0.000000 0.000000 0.000000 0.000000 -0.000000 -0.964812 90.609800 -0.825781 90.742000 -4.852950 7.773770 15.735700 0.000005 -0.000001 90.713100 83.722800 -85.276200 8.984550 -0.406207 -0.000000 4.809900 0.016762 10.860600 16.377300 -0.000001 -0.000001 5.528400 -4.029000 0.523086 6.456720 -0.000001 -0.000000 1.913860 -4.885360 6.879670 12.994200 -0.242716 4.980390 -87.196700 -6.349040 -66.116700 5.348090 -0.000007 -0.000001 -48.812400 -57.030900 -53.772400 24.328600 0.000019 0.000005 -2.544990 -4.592250 -29.035500 22.291600 -0.000001 0.000005 20.649900 4.907970 9.218670 12.994500 -0.242716 -4.980390 87.232100 8.996170 -72.819100 -5.348130 -0.000001 -0.000004 -57.521900 7.817470 2.264170 -24.328900 0.000322 -0.000009 -5.886810 -15.649400 -20.914500 -22.291500 -0.000108 -0.000004 21.678900 5.502190 -6.621860 -2.192480 -6.469440 -0.000000 -174.401000 -17.633900 -1.632200 39.081100 -0.000007 -0.000012 -0.193133 0.325135 30.711000 40.985400 -0.000006 -0.000013 0.551469 9.361540 -70.607400 11.754300 -0.000000 0.000003 -0.000073 -0.000789 -16.608000 -2.192510 6.469440 -0.000001 173.804000 17.373000 177.626000 -39.081100 -0.002282 -0.040193 -0.192901 0.315758 31.855300 -40.985400 0.000008 0.000006 3.615370 13.887500 -71.834000 -11.754300 -0.000006 -0.000006 -0.172474 -0.210822 -16.442300
0.000000 0.000000 0.000000 0.000000 0.000000 -0.000000 -1.120470 90.712700 -0.651538 90.232200 -4.562060 7.618580 15.735700 0.000005 -0.000001 92.727000 83.933700 -87.509900 8.984550 -0.406207 -0.000000 4.355080 0.421939 10.406400 16.377300 -0.000001 -0.000001 6.206320 -4.005770 -0.159347 6.456720 -0.000001 -0.000000 2.033630 -5.147670 7.198510 12.994200 -0.242716 4.980390 -86.173700 -8.429520 -65.477100 5.348090 -0.000007 -0.000001 -41.109800 -61.000700 -57.775200 24.328600 0.000019 0.000005 -3.052580 -4.431740 -34.611000 22.291600 -0.000001 0.000005 21.035900 5.023910 6.809030 12.994500 -0.242716 -4.980390 87.235500 8.972860 -72.797800 -5.348130 -0.000001 -0.000004 -57.318200 7.928070 3.001300 -24.328900 0.000322 -0.000009 -5.079850 -14.201500 -19.913300 -22.291500 -0.000108 -0.000004 21.193700 5.494940 -6.330410 -2.192480 -6.469440 -0.000000 -173.913000 -16.930400 -1.518320 39.081100 -0.000007 -0.000012 -0.198454 0.338904 30.352500 40.985400 -0.000006 -0.000013 0.314532 9.103020 -70.499000 11.754300 -0.000000 0.000003 -0.000060 -0.000659 -16.603100 -2.192510 6.469440 -0.000001 174.268000 18.240000 178.200000 -39.081100 -0.002282 -0.040193 -0.175873 0.298658 30.960800 -40.985400 0.000008 0.000006 3.936530 14.264900 -71.648400 -11.754300 -0.000006 -0.000006 -0.285428 -0.347022 -16.353600
0.000000 0.000000 0.000000 0.000000 0.000000 -0.000000 -1.162080 90.900200 -0.489885 89.752200 -4.618920 7.243050 15.735700 0.000005 -0.000001 92.990400 84.125000 -87.952300 8.984550 -0.406207 -0.000000 3.968530 0.445985 10.049500 16.377300 -0.000001 -0.000001 6.732690 -3.393320 -1.202200 6.456720 -0.000001 -0.000000 2.121200 -5.367730 8.117780 12.994200 -0.242716 4.980390 -84.805700 -10.467400 -63.418900 5.348090 -0.000007 -0.000001 -37.776700 -67.568000 -65.022600 24.328600 0.000019 0.000005 -3.379950 -3.675730 -42.654900 22.291600 -0.000001 0.000005 22.346200 5.105610 4.989660 12.994500 -0.242716 -4.980390 87.327300 8.954260 -73.304900 -5.348130 -0.000001 -0.000004 -56.715200 7.044960 3.106350 -24.328900 0.000322 -0.000009 -4.771270 -14.128900 -18.873500 -22.291500 -0.000108 -0.000004 21.408200 5.483530 -5.884710 -2.192480 -6.469440 -0.000000 -173.494000 -16.844200 -1.334820 39.081100 -0.000007 -0.000012 -0.192128 0.339285 29.522000 40.985400 -0.000006 -0.000013 0.174073 9.021430 -70.187700 11.754300 -0.000000 0.000003 -0.000061 -0.000672 -16.603600 -2.192510 6.469440 -0.000001 174.929000 18.480600 178.593000 -39.081100 -0.002282 -0.040193 -0.128744 0.231197 29.732700 -40.985400 0.000008 0.000006 4.695380 14.256600 -71.383400 -11.754300 -0.000006 -0.000006 -0.250272 -0.302612 -16.381300
